<svg width="400" height="200" viewBox="3 0 96 76" fill="#4c5d6d">
  <path d="M91.56,70.65H87.91L78,57.18a1,1,0,0,0-1.66.07l-1.79,3L58.78,38.88V33.37h4.79a1,1,0,0,0,1-1v-4a1,1,0,0,0-1-1H57.78a1,1,0,0,0-1,1V38.88L46.52,52.65,42,46.15A1,1,0,0,0,42,46.08a1,1,0,0,0-.22-0.2l-0.14-.07a1,1,0,0,0-.26-0.07l-0.1,0H41.08a1,1,0,0,0-.32.11l-0.08,0a1,1,0,0,0-.24.21L29.17,60.41l-2.65-3.27a1.1,1.1,0,0,0-.79-0.37,1,1,0,0,0-.78.4L14.78,70.65H8.44a1,1,0,0,0,0,2h72a1,1,0,0,0,0-2H77L63.26,52.81A1,1,0,0,0,61.67,54L74.51,70.65H17.29L25.77,59.4l4.82,5.94a1,1,0,0,0,1.55-1.26L30.46,62,40.54,49.2,41.85,59a1,1,0,0,0,.2.48l4.48,5.8a1,1,0,1,0,1.58-1.22L43.8,58.52l-1-7.8L47,56.91a1,1,0,0,0,1.17.37L53,55.53l2.77,2.93a1,1,0,0,0,1.46-1.37L54,53.68a1,1,0,0,0-1.07-.25l-4.7,1.71-0.52-.75,5.23-7,2.91,0.3,1.43,2.74a1,1,0,0,0,1.36.42l4.62-2.49L73.84,62.6h0l2.57,3.47A1,1,0,1,0,78,64.89L75.85,62l1.44-2.39,8.13,11.08h-1a1,1,0,0,0,0,2h7.1A1,1,0,0,0,91.56,70.65ZM58.78,29.35h3.79v2H58.78v-2ZM58.6,48.57l-1.21-2.32a1,1,0,0,0-.78-0.53l-2.26-.23,3.43-4.6,4.3,5.81Z" />
</svg>
