<svg width="96" height="56" viewBox="0 24 96 56" fill="#4c5d6d" xmlns="http://www.w3.org/2000/svg">
  <path d="M91.56 70.65h-3.65L78 57.18a1 1 0 0 0-1.66.07l-1.79 3-15.77-21.37v-5.51h4.79a1 1 0 0 0 1-1v-4a1 1 0 0 0-1-1h-5.79a1 1 0 0 0-1 1v10.51L46.52 52.65 42 46.15a1 1 0 0 0 0-.07 1 1 0 0 0-.22-.2l-.14-.07a1 1 0 0 0-.26-.07h-.3a1 1 0 0 0-.32.11h-.08a1 1 0 0 0-.24.21L29.17 60.41l-2.65-3.27a1.1 1.1 0 0 0-.79-.37 1 1 0 0 0-.78.4L14.78 70.65H8.44a1 1 0 0 0 0 2h72a1 1 0 0 0 0-2H77L63.26 52.81A1 1 0 0 0 61.67 54l12.84 16.65H17.29l8.48-11.25 4.82 5.94a1 1 0 0 0 1.55-1.26L30.46 62l10.08-12.8 1.31 9.8a1 1 0 0 0 .2.48l4.48 5.8a1 1 0 1 0 1.58-1.22l-4.31-5.54-1-7.8 4.2 6.19a1 1 0 0 0 1.17.37L53 55.53l2.77 2.93a1 1 0 0 0 1.46-1.37L54 53.68a1 1 0 0 0-1.07-.25l-4.7 1.71-.52-.75 5.23-7 2.91.3 1.43 2.74a1 1 0 0 0 1.36.42l4.62-2.49L73.84 62.6l2.57 3.47A1 1 0 1 0 78 64.89L75.85 62l1.44-2.39 8.13 11.08h-1a1 1 0 0 0 0 2h7.1a1 1 0 0 0 .04-2.04zm-32.78-41.3h3.79v2h-3.79v-2zm-.18 19.22-1.21-2.32a1 1 0 0 0-.78-.53l-2.26-.23 3.43-4.6 4.3 5.81z"/>
</svg>
